# xmcd
#
# Track frame offsets: 
#        150
#        16585
#        29923
#        42190
#        55338
#        71570
#        83943
#        98988
#        114825
#        134168
#        149973
#        163200
#        181033
#        195788
#        213645
#        231128
#        251538
#        262288
#        284800
#        298208
#        314913
#
# Disc length: 4357 seconds
#
# Revision: 6
# Processed by: cddbd v1.5.2PL0 Copyright (c) Steve Scherf et al.
# Submitted via: ExactAudioCopyFreeDBPlugin 1.0
#
DISCID=57110315
DTITLE=Various Artist - The Complete Stax-Volt Singles, 1959-1975
DYEAR=1994
DGENRE=Soul
TTITLE0=The Soul Children - It Ain't Always What You Do (It's Who You 
TTITLE0=Let See You Do It)
TTITLE1=Mel and Tim - I May Not Be What You Want
TTITLE2=Rufus Thomas - Funky Robot (Part 1)
TTITLE3=Johnnie Taylor - Don't You Fool with My Soul (Part 1)
TTITLE4=The Staple Singers - Oh La De Da
TTITLE5=Hot Sauce - What Do You See in Her?
TTITLE6=The Temprees - A Thousand Miles Away
TTITLE7=The Dramatics - Hey You! Get Off My Mountain
TTITLE8=Isaac Hayes - Rolling Down a Mountainside
TTITLE9=The Bar-Kays - You're Still My Brother
TTITLE10=Jimmy Lewis - Stop Half Loving These Women
TTITLE11=William Bell - Lovin' on Borrowed Time
TTITLE12=Eddie Floyd - Lay Your Loving on Me
TTITLE13=Inez Foxx - The Time
TTITLE14=Mel and Tim - Heaven Knows
TTITLE15=Johnnie Taylor - I Believe in You (You Believe in Me)
TTITLE16=Veda Brown - Short Stopping
TTITLE17=The Staple Singers - Be What You Are
TTITLE18=Stefan - I've Got to Love Somebody's Baby
TTITLE19=Albert King - Playing on Me
TTITLE20=David Porter - Long as You're the One Somebody in the World
EXTD=
EXTT0=
EXTT1=
EXTT2=
EXTT3=
EXTT4=
EXTT5=
EXTT6=
EXTT7=
EXTT8=
EXTT9=
EXTT10=
EXTT11=
EXTT12=
EXTT13=
EXTT14=
EXTT15=
EXTT16=
EXTT17=
EXTT18=
EXTT19=
EXTT20=
PLAYORDER=
